<?xml version="1.0" standalone="no"?>
<!DOCTYPE svg PUBLIC "-//W3C//DTD SVG 20010904//EN"
 "http://www.w3.org/TR/2001/REC-SVG-20010904/DTD/svg10.dtd">
<svg version="1.0" xmlns="http://www.w3.org/2000/svg"
 width="1024.000000pt" height="1024.000000pt" viewBox="0 0 1024.000000 1024.000000"
 preserveAspectRatio="xMidYMid meet">

<g transform="translate(0.000000,1024.000000) scale(0.100000,-0.100000)"
fill="#000000" stroke="none">
<path d="M3690 6930 c-1887 -5 -1977 -6 -2025 -23 -79 -30 -126 -61 -188 -126
-64 -67 -111 -156 -127 -240 -6 -35 -10 -517 -10 -1370 0 -1433 -2 -1368 55
-1487 53 -110 169 -206 293 -244 63 -20 99 -20 2791 -20 2971 0 2794 -3 2918
57 34 17 92 61 145 111 48 45 99 87 113 92 17 6 287 10 716 10 l689 0 0 498 0
498 -62 99 c-33 55 -73 127 -88 160 -91 200 -57 415 94 597 l56 66 0 521 0
521 -689 0 c-464 0 -699 3 -718 11 -15 6 -68 50 -118 98 -97 95 -149 129 -235
157 -66 21 -428 22 -3610 14z m3618 -215 c64 -35 96 -71 131 -145 l26 -55 0
-1341 0 -1341 -35 -68 c-25 -50 -48 -78 -81 -102 -95 -68 122 -63 -2880 -61
-2507 3 -2717 4 -2749 20 -64 30 -125 85 -155 139 l-30 54 -3 1320 c-2 726 0
1343 3 1371 12 105 97 202 202 230 39 10 564 12 2783 11 l2735 -2 53 -30z
m1422 -304 c5 -11 10 -74 10 -140 0 -152 1 -151 -153 -151 -60 0 -117 5 -128
10 -17 10 -19 22 -19 143 0 90 4 137 12 145 8 8 54 12 140 12 116 0 128 -2
138 -19z m-6 -553 c12 -17 16 -50 16 -137 0 -154 3 -151 -155 -151 -92 0 -125
3 -134 14 -18 21 -20 259 -2 280 11 13 35 16 137 16 116 0 124 -1 138 -22z
m-66 -540 c8 -8 12 -54 12 -143 0 -89 -4 -135 -12 -143 -15 -15 -181 -16 -209
-2 -17 10 -19 22 -19 140 0 162 -2 160 124 160 58 0 96 -4 104 -12z m66 -554
c13 -12 16 -40 16 -139 0 -99 -3 -127 -16 -139 -23 -24 -256 -23 -275 0 -10
12 -14 51 -14 141 0 157 -5 153 156 153 94 0 121 -3 133 -16z m4 -546 c8 -8
12 -55 12 -144 0 -110 -3 -134 -17 -145 -21 -18 -232 -26 -262 -9 -20 10 -21
19 -21 145 0 108 3 137 16 149 12 13 40 16 138 16 81 0 126 -4 134 -12z"/>
<path d="M3177 6516 c-16 -16 -17 -63 -17 -637 l0 -619 135 0 135 0 0 495 0
495 100 0 c154 0 140 52 140 -515 l0 -475 135 0 135 0 0 495 0 495 103 0 c73
0 109 -4 123 -14 18 -14 19 -33 22 -495 l3 -481 129 0 130 0 0 533 c0 603 3
575 -83 654 -79 73 -84 73 -662 80 -475 6 -512 5 -528 -11z"/>
<path d="M4678 6523 c-15 -2 -37 -16 -48 -30 -20 -26 -21 -35 -18 -542 3 -509
3 -517 25 -557 12 -22 39 -56 59 -74 69 -60 81 -62 381 -64 l273 -1 0 137 0
138 -224 0 c-273 0 -256 -10 -256 152 l0 108 215 0 215 0 0 79 c0 43 -3 99 -6
125 l-7 46 -208 0 -209 0 0 110 0 110 240 0 240 0 0 135 0 135 -322 -1 c-178
-1 -335 -4 -350 -6z"/>
<path d="M1802 6508 c-8 -8 -12 -53 -12 -135 l0 -123 145 0 145 0 0 -495 0
-495 130 0 130 0 0 495 0 495 98 2 c53 1 113 3 132 3 l35 1 2 132 2 132 -397
0 c-296 0 -401 -3 -410 -12z"/>
<path d="M2740 5890 l0 -630 135 0 135 0 0 630 0 630 -135 0 -135 0 0 -630z"/>
<path d="M5522 6508 c-9 -9 -12 -86 -12 -284 0 -239 2 -273 16 -285 14 -11 98
-13 460 -10 244 1 444 -1 444 -6 0 -4 -199 -98 -441 -207 -241 -110 -448 -208
-459 -218 -19 -18 -20 -33 -20 -273 l0 -255 -45 34 c-73 57 -98 61 -330 61
-240 0 -252 -3 -286 -78 -17 -40 -19 -74 -19 -604 l0 -563 135 0 135 0 0 501
0 502 110 -5 c87 -4 115 -8 128 -22 15 -15 17 -59 20 -496 l3 -480 139 0 140
0 2 498 3 497 111 0 c79 0 116 -4 127 -14 15 -12 17 -60 17 -497 l0 -484 130
0 130 0 0 513 c0 322 -4 526 -10 549 -17 60 -69 119 -135 153 -56 29 -65 30
-206 34 l-147 3 -4 122 c-2 66 -1 141 2 166 l5 44 211 96 c115 52 348 157 517
233 169 77 318 148 332 159 22 17 25 27 25 79 0 46 -4 63 -20 79 -20 20 -33
20 -536 20 -284 0 -520 2 -523 6 -7 7 -8 280 -1 287 3 3 313 7 690 8 669 4
686 3 719 -16 19 -11 43 -33 55 -48 20 -27 21 -43 24 -266 l3 -237 -168 -81
c-92 -45 -305 -147 -473 -228 -168 -81 -311 -154 -317 -163 -18 -22 -16 -73 3
-100 l15 -22 465 0 464 0 0 -267 c0 -148 3 -377 7 -510 l6 -243 -36 0 -36 0
-3 353 -3 352 -28 47 c-29 49 -88 97 -146 116 -53 18 -326 15 -391 -4 -68 -20
-121 -54 -156 -99 -50 -66 -54 -107 -54 -642 l0 -493 135 0 135 0 0 185 0 185
135 0 135 0 0 -185 0 -185 125 0 125 0 0 104 0 104 90 4 c53 2 95 9 103 17 9
9 11 151 9 649 -3 572 -5 638 -20 650 -12 9 -100 12 -356 12 l-341 1 358 180
357 180 0 297 0 298 -26 52 c-29 58 -79 106 -138 133 -39 18 -84 19 -821 19
-594 0 -784 -3 -793 -12z m1301 -1717 c21 -20 22 -32 25 -181 l3 -160 -135 0
-136 0 0 158 c0 181 4 192 71 202 80 13 148 6 172 -19z"/>
<path d="M2050 5059 c-135 -8 -199 -40 -243 -122 -22 -42 -22 -45 -22 -482 l0
-440 28 -57 c16 -32 45 -71 65 -88 66 -54 101 -60 364 -60 l239 0 -3 138 -3
137 -191 0 c-175 0 -194 2 -213 19 -21 19 -21 26 -21 346 0 304 1 328 18 343
16 15 46 17 215 17 l197 0 0 125 0 124 -167 3 c-93 2 -211 0 -263 -3z"/>
<path d="M3050 5050 c-19 -19 -20 -38 -20 -625 l0 -605 135 0 135 0 0 501 0
502 108 -6 c125 -6 140 -10 150 -46 4 -14 6 -234 5 -488 l-1 -463 134 0 134 0
0 519 c0 587 2 571 -78 643 -86 78 -139 88 -450 88 -217 -1 -234 -2 -252 -20z"/>
<path d="M4023 5050 c-21 -13 -35 -31 -42 -57 -7 -24 -11 -208 -11 -504 0
-529 0 -530 76 -605 67 -67 103 -74 396 -74 l249 0 -3 138 -3 137 -60 1 c-349
4 -353 4 -369 20 -13 12 -16 38 -16 120 l0 104 195 0 195 0 0 130 0 130 -195
0 -195 0 0 115 0 115 225 0 225 0 0 125 0 125 -317 0 c-297 0 -320 -1 -350
-20z"/>
<path d="M2610 4440 l0 -620 135 0 135 0 0 620 0 620 -135 0 -135 0 0 -620z"/>
</g>
</svg>
